<svg width="176" height="27" viewBox="0 0 176 27" fill="none" xmlns="http://www.w3.org/2000/svg">
<path d="M26.7344 5.49219C26.7344 6.22135 26.474 6.83333 25.9531 7.32812C25.4583 7.84896 24.8464 8.10938 24.1172 8.10938H8.49219C7.9974 8.13542 7.58073 8.2526 7.24219 8.46094C6.92969 8.64323 6.69531 8.86458 6.53906 9.125C6.38281 9.35938 6.30469 9.60677 6.30469 9.86719C6.30469 10.1276 6.38281 10.388 6.53906 10.6484C6.69531 10.8828 6.92969 11.1042 7.24219 11.3125C7.58073 11.4948 7.9974 11.599 8.49219 11.625H19.5859C21.4089 11.6771 22.9062 12.1068 24.0781 12.9141C25.276 13.6953 26.1224 14.6068 26.6172 15.6484C27.138 16.6641 27.3984 17.7057 27.3984 18.7734C27.3984 19.8151 27.138 20.8568 26.6172 21.8984C26.0964 22.9141 25.25 23.8255 24.0781 24.6328C22.9062 25.4141 21.4089 25.8047 19.5859 25.8047H19.3516C19.1953 25.8307 19.0391 25.8438 18.8828 25.8438H4.11719C3.38802 25.8438 2.76302 25.5964 2.24219 25.1016C1.7474 24.5807 1.5 23.9557 1.5 23.2266C1.5 22.4974 1.76042 21.8854 2.28125 21.3906C2.77604 20.8698 3.38802 20.6094 4.11719 20.6094H19.8203C20.3151 20.6354 20.7188 20.5443 21.0312 20.3359C21.3698 20.1276 21.6172 19.8932 21.7734 19.6328C21.9297 19.3464 22.0078 19.0599 22.0078 18.7734C22.0078 18.5911 21.9297 18.3438 21.7734 18.0312C21.6172 17.6927 21.3698 17.4193 21.0312 17.2109C20.7188 17.0026 20.3151 16.8854 19.8203 16.8594H8.72656C6.90365 16.8073 5.39323 16.3906 4.19531 15.6094C3.02344 14.8281 2.17708 13.9427 1.65625 12.9531C1.16146 11.9375 0.914062 10.9089 0.914062 9.86719C0.914062 8.85156 1.17448 7.84896 1.69531 6.85938C2.21615 5.84375 3.0625 4.94531 4.23438 4.16406C5.40625 3.38281 6.90365 2.96615 8.72656 2.91406H8.96094C9.11719 2.88802 9.27344 2.875 9.42969 2.875H24.1172C24.8464 2.875 25.4583 3.13542 25.9531 3.65625C26.474 4.15104 26.7344 4.76302 26.7344 5.49219ZM35.7969 26.5469C34.7552 26.5469 33.8828 26.1823 33.1797 25.4531C32.5026 24.724 32.1641 23.8125 32.1641 22.7188C32.1641 21.625 32.5026 20.7135 33.1797 19.9844C33.8828 19.2552 34.7552 18.8906 35.7969 18.8906C36.8385 18.8906 37.7109 19.2552 38.4141 19.9844C39.1172 20.7135 39.4688 21.625 39.4688 22.7188C39.4688 23.8125 39.1172 24.724 38.4141 25.4531C37.7109 26.1823 36.8385 26.5469 35.7969 26.5469ZM50.0156 23.8516C49.8594 25.4141 49 26.2604 47.4375 26.3906C46.7083 26.3906 46.0703 26.1562 45.5234 25.6875C45.0026 25.1927 44.7422 24.5807 44.7422 23.8516V5.41406C44.7682 4.6849 45.0417 4.08594 45.5625 3.61719C46.0833 3.1224 46.7083 2.875 47.4375 2.875H63.8438C66.1354 2.95312 67.8672 3.46094 69.0391 4.39844C70.2109 5.3099 71.0573 6.35156 71.5781 7.52344C72.099 8.69531 72.3594 9.88021 72.3594 11.0781C72.3594 12.3281 72.099 13.5391 71.5781 14.7109C71.0833 15.8828 70.237 16.9375 69.0391 17.875C67.8672 18.7865 66.3698 19.2292 64.5469 19.2031H54.7031C53.974 19.2031 53.362 18.9427 52.8672 18.4219C52.3464 17.9271 52.0859 17.3151 52.0859 16.5859C52.0859 15.8568 52.3333 15.2448 52.8281 14.75C53.349 14.2292 53.974 13.9688 54.7031 13.9688H64.7812C65.276 13.9688 65.6797 13.8125 65.9922 13.5C66.3307 13.1615 66.5781 12.7839 66.7344 12.3672C66.8906 11.9245 66.9688 11.4818 66.9688 11.0391C66.9688 10.6224 66.8906 10.2057 66.7344 9.78906C66.5781 9.34635 66.3307 8.96875 65.9922 8.65625C65.6797 8.31771 65.276 8.13542 64.7812 8.10938H51.0312C50.3542 8.13542 50.0156 8.47396 50.0156 9.125V23.8516ZM84.5859 25.9219C82.2943 25.8438 80.5625 25.3099 79.3906 24.3203C78.2188 23.3047 77.3724 22.1719 76.8516 20.9219C76.3307 19.6458 76.0703 18.3568 76.0703 17.0547C76.0703 15.7005 76.3177 14.3984 76.8125 13.1484C77.3333 11.8724 78.1797 10.7396 79.3516 9.75C80.5495 8.73438 82.0599 8.21354 83.8828 8.1875H96.5391C98.362 8.21354 99.8594 8.73438 101.031 9.75C102.229 10.7396 103.076 11.8724 103.57 13.1484C104.091 14.3984 104.352 15.7005 104.352 17.0547C104.352 18.3568 104.091 19.6458 103.57 20.9219C103.049 22.1719 102.203 23.3047 101.031 24.3203C99.8594 25.3099 98.1276 25.8438 95.8359 25.9219H84.5859ZM83.7266 13.4219C83.2318 13.4219 82.8021 13.6302 82.4375 14.0469C82.0729 14.4375 81.7995 14.9062 81.6172 15.4531C81.4609 15.974 81.3828 16.4948 81.3828 17.0156C81.3828 17.5625 81.4609 18.1094 81.6172 18.6562C81.7995 19.1771 82.0729 19.6458 82.4375 20.0625C82.8021 20.4531 83.2318 20.6615 83.7266 20.6875H96.6953C97.1901 20.6615 97.6198 20.4531 97.9844 20.0625C98.349 19.6458 98.6094 19.1771 98.7656 18.6562C98.9479 18.1094 99.0391 17.5625 99.0391 17.0156C99.0391 16.4948 98.9479 15.974 98.7656 15.4531C98.6094 14.9062 98.349 14.4375 97.9844 14.0469C97.6198 13.6302 97.1901 13.4219 96.6953 13.4219H83.7266ZM111.539 7.79688C112.242 7.82292 112.841 8.08333 113.336 8.57812C113.831 9.04688 114.091 9.63281 114.117 10.3359V23.8516C113.961 25.4141 113.102 26.2604 111.539 26.3906C110.81 26.3906 110.172 26.1562 109.625 25.6875C109.104 25.1927 108.844 24.5807 108.844 23.8516V10.3359C108.87 9.60677 109.143 9.00781 109.664 8.53906C110.185 8.04427 110.81 7.79688 111.539 7.79688ZM108.258 2.71875C108.258 1.98958 108.57 1.36458 109.195 0.84375C109.82 0.322917 110.576 0.0625 111.461 0.0625C112.346 0.0625 113.102 0.322917 113.727 0.84375C114.352 1.36458 114.664 1.98958 114.664 2.71875C114.664 3.47396 114.352 4.11198 113.727 4.63281C113.102 5.15365 112.346 5.41406 111.461 5.41406C110.576 5.41406 109.82 5.15365 109.195 4.63281C108.57 4.11198 108.258 3.47396 108.258 2.71875ZM131.344 7.60156C132.698 7.60156 134.026 7.75781 135.328 8.07031C136.656 8.38281 137.919 8.85156 139.117 9.47656C140.315 10.0755 141.37 10.8828 142.281 11.8984C143.219 12.9141 143.727 14.125 143.805 15.5312V17.1719V23.8516C143.648 25.4141 142.789 26.2604 141.227 26.3906C140.497 26.3906 139.859 26.1562 139.312 25.6875C138.792 25.1927 138.531 24.5807 138.531 23.8516V22.1328V16.7422C138.479 15.9349 138.167 15.2708 137.594 14.75C137.047 14.2031 136.422 13.7734 135.719 13.4609C135.042 13.1484 134.326 12.9141 133.57 12.7578C132.841 12.6016 132.099 12.5234 131.344 12.5234C130.589 12.5234 129.833 12.6016 129.078 12.7578C128.349 12.9141 127.633 13.1484 126.93 13.4609C126.253 13.7734 125.628 14.2031 125.055 14.75C124.508 15.2708 124.208 15.9349 124.156 16.7422V22.1328V23.8516C124.026 25.4141 123.18 26.2604 121.617 26.3906C120.888 26.3906 120.25 26.1562 119.703 25.6875C119.182 25.1927 118.922 24.5807 118.922 23.8516V17.1719V15.5312C119 14.125 119.495 12.9141 120.406 11.8984C121.318 10.8828 122.372 10.0755 123.57 9.47656C124.768 8.85156 126.018 8.38281 127.32 8.07031C128.648 7.75781 129.99 7.60156 131.344 7.60156ZM157.242 2.25C157.971 2.25 158.596 2.4974 159.117 2.99219C159.638 3.46094 159.911 4.0599 159.938 4.78906V8.1875H173.219C173.948 8.1875 174.573 8.4349 175.094 8.92969C175.589 9.45052 175.836 10.0755 175.836 10.8047C175.836 11.5339 175.576 12.1589 175.055 12.6797C174.56 13.1745 173.948 13.4219 173.219 13.4219H159.938V14.2031C159.911 15.2708 159.977 16.2604 160.133 17.1719C160.315 18.0573 160.732 18.8516 161.383 19.5547C162.034 20.2578 162.854 20.6354 163.844 20.6875H173.375C174.104 20.7135 174.703 20.987 175.172 21.5078C175.667 22.0286 175.914 22.6536 175.914 23.3828C175.888 24.0859 175.628 24.6849 175.133 25.1797C174.664 25.6484 174.078 25.8958 173.375 25.9219H162.516C160.693 25.8177 159.182 25.2057 157.984 24.0859C156.812 22.9401 155.966 21.5469 155.445 19.9062C154.951 18.2656 154.69 16.5208 154.664 14.6719V13.4219H150.172C149.443 13.4219 148.831 13.1615 148.336 12.6406C147.815 12.1458 147.555 11.5339 147.555 10.8047C147.555 10.0755 147.802 9.46354 148.297 8.96875C148.818 8.44792 149.443 8.1875 150.172 8.1875H154.664V4.78906C154.69 4.08594 154.951 3.5 155.445 3.03125C155.94 2.53646 156.539 2.27604 157.242 2.25Z" fill="#412C86"/>
</svg>
